<svg width="2105" height="1281" viewBox="0 0 2105 1281" fill="none" xmlns="http://www.w3.org/2000/svg">
<path d="M595.67 803.49C654.8 803.49 700.52 757.76 700.52 690.09V426.72H764.52V853.48H701.13V813.85C672.48 843.72 632.86 860.79 588.35 860.79C496.9 860.79 426.79 794.34 426.79 693.79V426.79H490.79V690.09C490.79 758.98 535.9 803.49 595.65 803.49" fill="white"/>
<path d="M812.09 426.73H873.66V582.19C888.02 567.481 905.183 555.802 924.136 547.842C943.088 539.882 963.444 535.805 984 535.85C1075.45 535.85 1147.38 608.4 1147.38 698.63C1147.38 788.25 1075.45 860.79 984 860.79C963.346 860.846 942.888 856.777 923.827 848.821C904.766 840.865 887.486 829.183 873 814.46V853.46H812L812.09 426.73ZM979.74 806.54C1038.27 806.54 1086.43 758.37 1086.43 698.63C1086.43 638.27 1038.27 590.72 979.74 590.72C920.6 590.72 872.44 638.27 872.44 698.63C872.44 758.37 919.99 806.54 979.74 806.54Z" fill="white"/>
<path d="M1331.51 536.46C1421.12 536.46 1486.97 605.35 1486.97 698.02V718.14H1234C1242.54 768.74 1284.6 806.54 1337 806.54C1373 806.54 1403.46 791.9 1426.62 760.81L1471.13 793.73C1440.03 835.19 1393.7 860.18 1337 860.18C1243.73 860.18 1171.79 790.68 1171.79 698.02C1171.79 610.23 1240.68 536.46 1331.52 536.46M1235.19 669.37H1424.79C1414.43 621.81 1376.02 590.11 1330.3 590.11C1284.58 590.11 1246.17 621.81 1235.19 669.37Z" fill="white"/>
<path d="M1652.18 597.43C1611.94 597.43 1582.68 628.52 1582.68 676.68V853.48H1521.1V542.56H1582.1V581C1597.34 556 1622.34 540.15 1656.48 540.15H1677.81V597.46L1652.18 597.43Z" fill="white"/>
</svg>
